# Blender 4.5.1 LTS
# www.blender.org
mtllib Road.mtl
o Cube
v -7.300001 0.239996 -11.539999
v -7.300001 -0.240003 -11.539999
v 7.300000 0.240001 -11.539999
v 7.300000 -0.239998 -11.539999
v -7.300000 0.239998 11.539999
v -7.300000 -0.240001 11.539999
v 7.300001 0.240003 11.539999
v 7.300001 -0.239996 11.539999
v -7.300001 0.239994 -34.619999
v -7.300001 -0.240005 -34.619999
v 7.300000 0.239999 -34.619999
v 7.300000 -0.240000 -34.619999
v -7.300000 0.239996 -11.539999
v -7.300000 -0.240003 -11.539999
v 7.300001 0.240001 -11.539999
v 7.300001 -0.239998 -11.539999
v -7.300001 0.239993 -57.699997
v -7.300001 -0.240006 -57.699997
v 7.300000 0.239998 -57.699997
v 7.300000 -0.240001 -57.699997
v -7.300000 0.239994 -34.619999
v -7.300000 -0.240005 -34.619999
v 7.300001 0.239999 -34.619999
v 7.300001 -0.240000 -34.619999
v -7.300001 0.239991 -80.779999
v -7.300001 -0.240008 -80.779999
v 7.300000 0.239996 -80.779999
v 7.300000 -0.240003 -80.779999
v -7.300000 0.239993 -57.700001
v -7.300000 -0.240006 -57.700001
v 7.300001 0.239998 -57.700001
v 7.300001 -0.240001 -57.700001
v -7.300001 0.239989 -103.860001
v -7.300001 -0.240010 -103.860001
v 7.300000 0.239994 -103.860001
v 7.300000 -0.240005 -103.860001
v -7.300000 0.239991 -80.779991
v -7.300000 -0.240008 -80.779991
v 7.300001 0.239996 -80.779991
v 7.300001 -0.240003 -80.779991
v -7.300001 0.239987 -126.939995
v -7.300001 -0.240012 -126.939995
v 7.300000 0.239992 -126.939995
v 7.300000 -0.240007 -126.939995
v -7.300000 0.239989 -103.859993
v -7.300000 -0.240010 -103.859993
v 7.300001 0.239994 -103.859993
v 7.300001 -0.240005 -103.859993
v -7.300001 0.239986 -150.019989
v -7.300001 -0.240013 -150.019989
v 7.300000 0.239991 -150.019989
v 7.300000 -0.240008 -150.019989
v -7.300000 0.239987 -126.939995
v -7.300000 -0.240012 -126.939995
v 7.300001 0.239992 -126.939995
v 7.300001 -0.240007 -126.939995
v -7.300001 0.239984 -173.099991
v -7.300001 -0.240015 -173.099991
v 7.300000 0.239989 -173.099991
v 7.300000 -0.240010 -173.099991
v -7.300000 0.239986 -150.020004
v -7.300000 -0.240013 -150.020004
v 7.300001 0.239991 -150.020004
v 7.300001 -0.240008 -150.020004
v -7.300001 0.239982 -196.180008
v -7.300001 -0.240017 -196.180008
v 7.300000 0.239987 -196.180008
v 7.300000 -0.240012 -196.180008
v -7.300000 0.239984 -173.100006
v -7.300000 -0.240015 -173.100006
v 7.300001 0.239989 -173.100006
v 7.300001 -0.240010 -173.100006
v -7.300001 0.239980 -219.260010
v -7.300001 -0.240019 -219.260010
v 7.300000 0.239985 -219.260010
v 7.300000 -0.240014 -219.260010
v -7.300000 0.239982 -196.180023
v -7.300000 -0.240017 -196.180023
v 7.300001 0.239987 -196.180023
v 7.300001 -0.240012 -196.180023
vn -0.0000 1.0000 -0.0000
vn 1.0000 -0.0000 -0.0000
vn -0.0000 -0.0000 1.0000
vn -0.0000 -1.0000 -0.0000
vn -0.0000 -0.0000 -1.0000
vn -1.0000 -0.0000 -0.0000
vt -0.013252 -0.009220
vt 0.997123 -0.009220
vt 0.997123 1.001155
vt -0.013252 1.001155
vt 0.473419 0.675424
vt 0.723419 0.675424
vt 0.723419 0.925424
vt 0.473419 0.925424
vt 0.486118 0.674614
vt 0.736118 0.674614
vt 0.736118 0.924614
vt 0.486118 0.924614
vt 0.433734 0.673805
vt 0.683734 0.673805
vt 0.683734 0.923805
vt 0.433734 0.923805
vt 0.210720 0.674614
vt 0.460720 0.674614
vt 0.460720 0.924614
vt 0.210720 0.924614
vt 0.655161 0.668265
vt 0.905161 0.668265
vt 0.905161 0.918265
vt 0.655161 0.918265
s 1
usemtl Material
f 1/1/1 5/2/1 7/3/1 3/4/1
f 4/5/2 3/6/2 7/7/2 8/8/2
f 8/9/3 7/10/3 5/11/3 6/12/3
f 6/13/4 2/14/4 4/15/4 8/16/4
f 2/17/5 1/18/5 3/19/5 4/20/5
f 6/21/6 5/22/6 1/23/6 2/24/6
f 9/1/1 13/2/1 15/3/1 11/4/1
f 12/5/2 11/6/2 15/7/2 16/8/2
f 16/9/3 15/10/3 13/11/3 14/12/3
f 14/13/4 10/14/4 12/15/4 16/16/4
f 10/17/5 9/18/5 11/19/5 12/20/5
f 14/21/6 13/22/6 9/23/6 10/24/6
f 17/1/1 21/2/1 23/3/1 19/4/1
f 20/5/2 19/6/2 23/7/2 24/8/2
f 24/9/3 23/10/3 21/11/3 22/12/3
f 22/13/4 18/14/4 20/15/4 24/16/4
f 18/17/5 17/18/5 19/19/5 20/20/5
f 22/21/6 21/22/6 17/23/6 18/24/6
f 25/1/1 29/2/1 31/3/1 27/4/1
f 28/5/2 27/6/2 31/7/2 32/8/2
f 32/9/3 31/10/3 29/11/3 30/12/3
f 30/13/4 26/14/4 28/15/4 32/16/4
f 26/17/5 25/18/5 27/19/5 28/20/5
f 30/21/6 29/22/6 25/23/6 26/24/6
f 33/1/1 37/2/1 39/3/1 35/4/1
f 36/5/2 35/6/2 39/7/2 40/8/2
f 40/9/3 39/10/3 37/11/3 38/12/3
f 38/13/4 34/14/4 36/15/4 40/16/4
f 34/17/5 33/18/5 35/19/5 36/20/5
f 38/21/6 37/22/6 33/23/6 34/24/6
f 41/1/1 45/2/1 47/3/1 43/4/1
f 44/5/2 43/6/2 47/7/2 48/8/2
f 48/9/3 47/10/3 45/11/3 46/12/3
f 46/13/4 42/14/4 44/15/4 48/16/4
f 42/17/5 41/18/5 43/19/5 44/20/5
f 46/21/6 45/22/6 41/23/6 42/24/6
f 49/1/1 53/2/1 55/3/1 51/4/1
f 52/5/2 51/6/2 55/7/2 56/8/2
f 56/9/3 55/10/3 53/11/3 54/12/3
f 54/13/4 50/14/4 52/15/4 56/16/4
f 50/17/5 49/18/5 51/19/5 52/20/5
f 54/21/6 53/22/6 49/23/6 50/24/6
f 57/1/1 61/2/1 63/3/1 59/4/1
f 60/5/2 59/6/2 63/7/2 64/8/2
f 64/9/3 63/10/3 61/11/3 62/12/3
f 62/13/4 58/14/4 60/15/4 64/16/4
f 58/17/5 57/18/5 59/19/5 60/20/5
f 62/21/6 61/22/6 57/23/6 58/24/6
f 65/1/1 69/2/1 71/3/1 67/4/1
f 68/5/2 67/6/2 71/7/2 72/8/2
f 72/9/3 71/10/3 69/11/3 70/12/3
f 70/13/4 66/14/4 68/15/4 72/16/4
f 66/17/5 65/18/5 67/19/5 68/20/5
f 70/21/6 69/22/6 65/23/6 66/24/6
f 73/1/1 77/2/1 79/3/1 75/4/1
f 76/5/2 75/6/2 79/7/2 80/8/2
f 80/9/3 79/10/3 77/11/3 78/12/3
f 78/13/4 74/14/4 76/15/4 80/16/4
f 74/17/5 73/18/5 75/19/5 76/20/5
f 78/21/6 77/22/6 73/23/6 74/24/6
